<?xml version="1.0" encoding="UTF-8" standalone="no"?>
<!DOCTYPE svg PUBLIC "-//W3C//DTD SVG 1.1//EN" "http://www.w3.org/Graphics/SVG/1.1/DTD/svg11.dtd">
<svg width="100%" height="100%" viewBox="0 0 299 363" version="1.1" xmlns="http://www.w3.org/2000/svg" xmlns:xlink="http://www.w3.org/1999/xlink" xml:space="preserve" xmlns:serif="http://www.serif.com/" style="fill-rule:evenodd;clip-rule:evenodd;stroke-linejoin:round;stroke-miterlimit:2;">
    <g transform="matrix(1,0,0,1,-1310.91,-1112.25)">
        <g transform="matrix(1,0,0,0.634146,0,0)">
            <g transform="matrix(1,0,0,1,711.703,-285.606)">
                <g transform="matrix(1,0,0,1.57692,0,0)">
                    <path d="M897.487,1514.39C897.487,1519.88 896.744,1526.06 895.258,1532.92C893.772,1539.78 892.534,1545.61 891.543,1550.41C889.81,1555.9 886.405,1562.25 881.328,1569.46C876.252,1576.66 869.751,1584.15 861.827,1591.93C853.903,1599.71 844.616,1607.37 833.968,1614.92C823.319,1622.46 811.433,1629.27 798.308,1635.33C785.183,1641.39 770.944,1646.25 755.591,1649.91C740.237,1653.57 724.017,1655.4 706.93,1655.4C687.615,1655.4 671.147,1652.43 657.527,1646.48C643.907,1640.53 632.763,1632.76 624.096,1623.15C615.428,1613.54 609.114,1602.68 605.151,1590.56C601.189,1578.43 599.208,1566.2 599.208,1553.85C599.208,1543.55 599.951,1534.35 601.437,1526.23C602.923,1518.11 604.78,1510.85 607.009,1504.44C609.237,1498.04 611.59,1492.55 614.066,1487.97C616.543,1483.4 618.895,1479.51 621.124,1476.31C622.362,1474.93 623.6,1474.25 624.839,1474.25C626.324,1474.25 627.067,1474.82 627.067,1475.96C625.086,1481.45 623.477,1486.2 622.238,1490.2C621,1494.2 619.886,1498.95 618.895,1504.44C617.905,1509.93 617.409,1516.22 617.409,1523.31C617.409,1533.6 619.081,1543.95 622.424,1554.36C625.767,1564.77 631.091,1574.2 638.397,1582.66C645.702,1591.13 655.236,1597.99 666.999,1603.25C678.762,1608.51 693.186,1611.14 710.273,1611.14C732.561,1611.14 753.3,1607.83 772.492,1601.19C791.684,1594.56 808.771,1586.61 823.753,1577.35C838.735,1568.08 851.241,1558.54 861.27,1548.7C871.299,1538.86 878.295,1530.74 882.257,1524.34C880.524,1509.7 877.242,1496.84 872.413,1485.74C867.585,1474.65 861.827,1464.87 855.141,1456.41C854.646,1458.47 854.212,1460.58 853.841,1462.76C853.469,1464.93 853.036,1467.04 852.541,1469.1C851.302,1475.28 849.074,1480.25 845.854,1484.03C842.635,1487.8 838.921,1490.72 834.711,1492.78C830.501,1494.83 826.043,1496.26 821.338,1497.06C816.633,1497.86 812.052,1498.27 807.595,1498.27C803.88,1498.27 800.042,1497.29 796.079,1495.35C792.117,1493.4 788.403,1490.83 784.936,1487.63C781.469,1484.43 778.621,1480.6 776.392,1476.13C774.164,1471.67 773.049,1467.04 773.049,1462.24C773.049,1457.21 773.421,1452.12 774.164,1446.97C774.906,1441.83 775.897,1436.85 777.135,1432.05C778.373,1427.25 779.674,1422.78 781.035,1418.67C782.398,1414.55 783.821,1411.12 785.307,1408.37C786.793,1405.4 788.712,1402.26 791.065,1398.94C793.417,1395.62 796.141,1392.59 799.237,1389.85C802.332,1387.1 805.737,1384.82 809.452,1382.99C813.166,1381.16 817.252,1380.24 821.71,1380.24C828.148,1380.24 834.711,1382.07 841.397,1385.73C848.083,1389.39 853.531,1393.16 857.741,1397.05C869.875,1408.26 878.481,1419.98 883.557,1432.22C888.634,1444.46 892.163,1457.44 894.144,1471.16C894.639,1474.36 895.072,1477.96 895.444,1481.97C895.815,1485.97 896.187,1489.97 896.558,1493.98C896.93,1497.98 897.177,1501.81 897.301,1505.47C897.425,1509.13 897.487,1512.1 897.487,1514.39ZM843.254,1438.91C838.549,1433.42 833.844,1429.19 829.139,1426.21C824.434,1423.24 819.357,1421.76 813.909,1421.76C808.957,1421.76 804.809,1423.18 801.466,1426.04C798.122,1428.9 795.46,1432.05 793.479,1435.48C791.498,1438.91 789.765,1443.48 788.279,1449.2C790.755,1450.8 793.046,1452.18 795.151,1453.32C797.256,1454.46 799.794,1455.49 802.766,1456.41C805.737,1457.32 809.08,1457.78 812.795,1457.78C816.757,1457.78 820.534,1457.04 824.124,1455.55C827.715,1454.06 830.872,1452.35 833.596,1450.4C836.32,1448.46 838.549,1446.4 840.283,1444.23C842.016,1442.06 843.007,1440.28 843.254,1438.91ZM820.471,1293.37C833.74,1293.37 844.513,1304.14 844.513,1317.41C844.513,1330.68 833.74,1341.45 820.471,1341.45C807.203,1341.45 796.43,1330.68 796.43,1317.41C796.43,1304.14 807.203,1293.37 820.471,1293.37ZM772.389,1293.37C785.657,1293.37 796.43,1304.14 796.43,1317.41C796.43,1330.68 785.657,1341.45 772.389,1341.45C759.12,1341.45 748.347,1330.68 748.347,1317.41C748.347,1304.14 759.12,1293.37 772.389,1293.37Z" style="fill:url(#_Linear1);fill-rule:nonzero;"/>
                </g>
                <g id="AA" transform="matrix(1,0,0,1.57692,0,0)">
                    <path d="M883.557,1432.22C878.481,1419.98 867.689,1414.29 872.766,1426.52C877.842,1438.76 881.371,1451.74 883.352,1465.46C883.847,1468.67 884.281,1472.27 884.652,1476.27C885.024,1480.28 885.395,1484.28 885.766,1488.28C886.138,1492.28 886.386,1496.11 886.509,1499.77C886.633,1503.43 886.695,1506.41 886.695,1508.69C886.695,1514.18 885.952,1520.36 884.466,1527.22C882.981,1534.08 881.742,1539.92 880.752,1544.72C879.018,1550.21 875.613,1556.56 870.537,1563.76C865.46,1570.97 858.96,1578.46 851.035,1586.23C843.111,1594.01 833.825,1601.67 823.176,1609.22C812.528,1616.77 800.641,1623.57 787.517,1629.63C774.392,1635.7 760.153,1640.56 744.799,1644.22C729.446,1647.88 713.225,1649.7 696.139,1649.7C676.823,1649.7 660.355,1646.73 646.735,1640.79C645.978,1640.45 645.228,1640.12 644.485,1639.78C648.546,1642.22 652.893,1644.46 657.527,1646.48C671.147,1652.43 687.615,1655.4 706.93,1655.4C724.017,1655.4 740.237,1653.57 755.591,1649.91C770.944,1646.25 785.183,1641.39 798.308,1635.33C811.433,1629.27 823.319,1622.46 833.968,1614.92C844.616,1607.37 853.903,1599.71 861.827,1591.93C869.751,1584.15 876.252,1576.66 881.328,1569.46C886.405,1562.25 889.81,1555.9 891.543,1550.41C892.534,1545.61 893.772,1539.78 895.258,1532.92C896.744,1526.06 897.487,1519.88 897.487,1514.39C897.487,1512.1 897.425,1509.13 897.301,1505.47C897.177,1501.81 896.93,1497.98 896.558,1493.98C896.187,1489.97 895.815,1485.97 895.444,1481.97C895.072,1477.96 894.639,1474.36 894.144,1471.16C892.163,1457.44 888.634,1444.46 883.557,1432.22ZM607.422,1503.27C609.528,1497.36 611.743,1492.27 614.066,1487.97C616.543,1483.4 618.895,1479.51 621.124,1476.31C622.362,1474.93 623.6,1474.25 624.839,1474.25C626.324,1474.25 627.067,1474.82 627.067,1475.96C625.086,1481.45 623.477,1486.2 622.238,1490.2C621,1494.2 619.886,1498.95 618.895,1504.44C617.905,1509.93 617.409,1516.22 617.409,1523.31C617.409,1533.6 619.081,1543.95 622.424,1554.36C625.767,1564.77 631.091,1574.2 638.397,1582.66C643.261,1588.3 649.114,1593.23 655.957,1597.44C644.309,1592.2 634.858,1585.37 627.605,1576.97C620.3,1568.51 614.976,1559.07 611.633,1548.66C608.289,1538.26 606.618,1527.91 606.618,1517.62C606.618,1512.4 606.886,1507.62 607.422,1503.27ZM828.097,1294.61C837.634,1297.8 844.513,1306.81 844.513,1317.41C844.513,1330.68 833.74,1341.45 820.471,1341.45C815.413,1341.45 810.718,1339.89 806.845,1337.21C809.241,1338.02 811.806,1338.45 814.471,1338.45C827.74,1338.45 838.513,1327.68 838.513,1314.41C838.513,1306.2 834.388,1298.94 828.097,1294.61ZM780.015,1294.61C785.242,1296.36 789.672,1299.85 792.607,1304.4C791.209,1307.45 790.43,1310.84 790.43,1314.41C790.43,1319.2 791.834,1323.66 794.252,1327.41C790.454,1335.69 782.088,1341.45 772.389,1341.45C767.331,1341.45 762.635,1339.89 758.763,1337.21C761.158,1338.02 763.723,1338.45 766.389,1338.45C779.657,1338.45 790.43,1327.68 790.43,1314.41C790.43,1306.2 786.305,1298.94 780.015,1294.61Z" style="fill:rgb(245,204,171);fill-rule:nonzero;"/>
                </g>
            </g>
        </g>
    </g>
    <defs>
        <linearGradient id="_Linear1" x1="0" y1="0" x2="1" y2="0" gradientUnits="userSpaceOnUse" gradientTransform="matrix(226.932,2.27374e-13,-2.27374e-13,226.932,637.056,1561.71)"><stop offset="0" style="stop-color:rgb(255,135,164);stop-opacity:1"/><stop offset="1" style="stop-color:rgb(253,74,115);stop-opacity:1"/></linearGradient>
    </defs>
</svg>
