<?xml version="1.0" encoding="utf-8"?>
<!-- Generator: Adobe Illustrator 28.0.0, SVG Export Plug-In . SVG Version: 6.00 Build 0)  -->
<svg version="1.1" id="Layer_1" xmlns="http://www.w3.org/2000/svg" xmlns:xlink="http://www.w3.org/1999/xlink" x="0px" y="0px"
	 viewBox="0 0 80 80" style="enable-background:new 0 0 80 80;" xml:space="preserve">
<style type="text/css">
	
		.st0{clip-path:url(#SVGID_00000024682968375046820650000005915152437685362105_);fill:url(#SVGID_00000171713502302021990570000011546387394925074323_);}
	.st1{filter:url(#Adobe_OpacityMaskFilter);}
	.st2{fill:url(#SVGID_00000178168160610767141400000003211772608884804277_);}
	.st3{mask:url(#SVGID_00000081615343567901207110000007466768194010902442_);fill-rule:evenodd;clip-rule:evenodd;}
	
		.st4{clip-path:url(#SVGID_00000098202149723497222410000004431002713015777425_);fill:url(#SVGID_00000065786191385960212750000014848064069584853435_);}
	.st5{filter:url(#Adobe_OpacityMaskFilter_00000153672635163310435190000018054658147811422364_);}
	.st6{fill:url(#SVGID_00000159459193621233113000000006232206267339487390_);}
	.st7{mask:url(#SVGID_00000068652285706023811390000003622223166529981613_);fill-rule:evenodd;clip-rule:evenodd;fill:#020C6A;}
	
		.st8{clip-path:url(#SVGID_00000115482519441403721510000006631013317209544881_);fill:url(#SVGID_00000183927721138205420080000007231985092416101519_);}
	
		.st9{clip-path:url(#SVGID_00000108295595471009935580000003767502214682789050_);fill:url(#SVGID_00000042722281309201247950000013688643346512924843_);}
	.st10{filter:url(#Adobe_OpacityMaskFilter_00000036963893811127708590000014348369344039219594_);}
	.st11{fill:url(#SVGID_00000097500255021805988950000011544898420846927282_);}
	.st12{mask:url(#SVGID_00000177484839863154854550000016181052703675386018_);fill-rule:evenodd;clip-rule:evenodd;}
	.st13{filter:url(#Adobe_OpacityMaskFilter_00000049181567068911123480000004226292920849844899_);}
	.st14{fill:url(#SVGID_00000135650612388394506500000016936436069844079291_);}
	.st15{mask:url(#SVGID_00000018934784236920586390000002421502753527931322_);fill-rule:evenodd;clip-rule:evenodd;}
	.st16{filter:url(#Adobe_OpacityMaskFilter_00000061429419501503295100000003488815621220549807_);}
	.st17{fill:url(#SVGID_00000085949561199186801870000018113217672138333849_);}
	.st18{mask:url(#SVGID_00000021080835701154107370000008539316457403297713_);fill-rule:evenodd;clip-rule:evenodd;fill:#FFBBD7;}
	.st19{filter:url(#Adobe_OpacityMaskFilter_00000111891987703136902290000007574693212516884148_);}
	.st20{fill:url(#SVGID_00000044176054997207308310000003684379724951883665_);}
	.st21{mask:url(#SVGID_00000183948113302451449200000018286961500116717223_);fill-rule:evenodd;clip-rule:evenodd;}
	
		.st22{clip-path:url(#SVGID_00000050654637607884552220000005359372686790699952_);fill:url(#SVGID_00000002342135366219571550000013347621361730035896_);}
	.st23{filter:url(#Adobe_OpacityMaskFilter_00000144337195198460833070000004950427138645352882_);}
	.st24{fill:url(#SVGID_00000140013448406921658740000003884597755784907905_);}
	.st25{mask:url(#SVGID_00000124868004087989414140000006284690652096466090_);fill-rule:evenodd;clip-rule:evenodd;}
	
		.st26{clip-path:url(#SVGID_00000165921311315580321900000004809126695546699157_);fill:url(#SVGID_00000176017127374454798480000010365292823971486861_);}
	.st27{opacity:0.3;fill-rule:evenodd;clip-rule:evenodd;fill:#990038;}
	.st28{filter:url(#Adobe_OpacityMaskFilter_00000174580281470968707990000006857559346721111982_);}
	.st29{fill:url(#SVGID_00000119798696887237398130000004569850460540453025_);}
	.st30{mask:url(#SVGID_00000075877753640855277280000017957577496820157078_);fill-rule:evenodd;clip-rule:evenodd;fill:#FFFF00;}
</style>
<g>
	<defs>
		<path id="SVGID_1_" d="M69.16,55.23c-0.08,2.6-4.08,10.74-11.05,6.37c-2.84-2.82-4.14-7.05-4.76-9.57
			c0.49,0.64,5.67,9.17,11.02,8.32C66.52,60.02,68.09,57.97,69.16,55.23"/>
	</defs>
	<clipPath id="SVGID_00000073694571692327201160000001680238017056240027_">
		<use xlink:href="#SVGID_1_"  style="overflow:visible;"/>
	</clipPath>
	
		<linearGradient id="SVGID_00000145021078251429518770000004339568234687456686_" gradientUnits="userSpaceOnUse" x1="69.3014" y1="71.307" x2="53.1743" y2="46.6525">
		<stop  offset="0" style="stop-color:#EA0E63"/>
		<stop  offset="1" style="stop-color:#FFFF00"/>
	</linearGradient>
	
		<rect x="53.35" y="52.04" style="clip-path:url(#SVGID_00000073694571692327201160000001680238017056240027_);fill:url(#SVGID_00000145021078251429518770000004339568234687456686_);" width="15.81" height="13.93"/>
</g>
<defs>
	<filter id="Adobe_OpacityMaskFilter" filterUnits="userSpaceOnUse" x="56.66" y="57.47" width="11.88" height="5.4">
		<feColorMatrix  type="matrix" values="1 0 0 0 0  0 1 0 0 0  0 0 1 0 0  0 0 0 1 0"/>
	</filter>
</defs>
<mask maskUnits="userSpaceOnUse" x="56.66" y="57.47" width="11.88" height="5.4" id="SVGID_00000000198205149958460630000002413779249111850637_">
	<g class="st1">
		
			<linearGradient id="SVGID_00000121988903321984873990000002101812774885085883_" gradientUnits="userSpaceOnUse" x1="-2282.3779" y1="1268.1287" x2="-2282.4631" y2="1260.6954" gradientTransform="matrix(1 0 0 1 2345.0449 -1201.8737)">
			<stop  offset="0" style="stop-color:#FFFFFF"/>
			<stop  offset="1" style="stop-color:#000000"/>
		</linearGradient>
		
			<rect x="56.66" y="57.47" style="fill:url(#SVGID_00000121988903321984873990000002101812774885085883_);" width="11.88" height="5.4"/>
	</g>
</mask>
<path style="mask:url(#SVGID_00000000198205149958460630000002413779249111850637_);fill-rule:evenodd;clip-rule:evenodd;" d="
	M68.54,57.59c-1.38,3.24-5,7.41-10.43,4.02c-0.54-0.53-1.02-1.12-1.45-1.73c5.14,2.73,9.02,2.16,11.41-2.4
	C68.23,57.5,68.39,57.54,68.54,57.59"/>
<g>
	<defs>
		<path id="SVGID_00000016061473881008732850000013068404290197506958_" d="M58.11,61.61c11.75,6.08,13.54-17.39,12.58-21.75
			c-1.05-4.81-4.45-3.09-9.26,1.17c-0.67-0.93,12.05-14.11,17.24-3.73c2.71,10.59-4.14,27.52-13.91,27.21
			C61.91,64.41,59.75,63.24,58.11,61.61"/>
	</defs>
	<clipPath id="SVGID_00000058580274506978389170000015289478149269389467_">
		<use xlink:href="#SVGID_00000016061473881008732850000013068404290197506958_"  style="overflow:visible;"/>
	</clipPath>
	
		<linearGradient id="SVGID_00000019657063251525485900000012625149278767319738_" gradientUnits="userSpaceOnUse" x1="62.4044" y1="19.8974" x2="81.4019" y2="90.8039">
		<stop  offset="0" style="stop-color:#1F32B3"/>
		<stop  offset="1" style="stop-color:#5EF9F6"/>
	</linearGradient>
	
		<rect x="58.11" y="26.91" style="clip-path:url(#SVGID_00000058580274506978389170000015289478149269389467_);fill:url(#SVGID_00000019657063251525485900000012625149278767319738_);" width="23.27" height="40.78"/>
</g>
<defs>
	
		<filter id="Adobe_OpacityMaskFilter_00000000188893427679244260000000542000242245343126_" filterUnits="userSpaceOnUse" x="61.49" y="33.32" width="17.69" height="7.5">
		<feColorMatrix  type="matrix" values="1 0 0 0 0  0 1 0 0 0  0 0 1 0 0  0 0 0 1 0"/>
	</filter>
</defs>
<mask maskUnits="userSpaceOnUse" x="61.49" y="33.32" width="17.69" height="7.5" id="SVGID_00000063622906887025352350000008947644749784379555_">
	<g style="filter:url(#Adobe_OpacityMaskFilter_00000000188893427679244260000000542000242245343126_);">
		
			<linearGradient id="SVGID_00000146501207352550448490000013354771545755482527_" gradientUnits="userSpaceOnUse" x1="-2291.5183" y1="1328.0929" x2="-2293.376" y2="1340.3544" gradientTransform="matrix(1 0 0 1 2363.3098 -1300.6497)">
			<stop  offset="0" style="stop-color:#FFFFFF"/>
			<stop  offset="1" style="stop-color:#000000"/>
		</linearGradient>
		
			<rect x="61.49" y="33.32" style="fill:url(#SVGID_00000146501207352550448490000013354771545755482527_);" width="17.69" height="7.5"/>
	</g>
</mask>
<path style="mask:url(#SVGID_00000063622906887025352350000008947644749784379555_);fill-rule:evenodd;clip-rule:evenodd;fill:#020C6A;" d="
	M67.03,37.16c-0.78,0.26-1.66,0.76-2.62,1.45c-0.98,0.65-1.91,1.4-2.74,2.21c0,0-0.06-0.06-0.17-0.17
	c1.04-2.3,12.36-13.01,17.18-3.37c0.25,0.97,0.42,1.99,0.51,3.05C76.19,35.45,71.37,35.24,67.03,37.16"/>
<g>
	<defs>
		<path id="SVGID_00000171686403910066635010000006557350911456343941_" d="M49.73,38.87c3.52,1.41,5.79,3.75,6.96,6.62
			c-3.4,3.3-7.21,7.09-11.22,10.46C27.71,67.65,19,53.09,19.49,51.56c1.81,2.19,4.1,3.6,6.74,3.63
			C32.89,55.27,41.08,46.33,49.73,38.87"/>
	</defs>
	<clipPath id="SVGID_00000067948148636435043300000009461562898752068013_">
		<use xlink:href="#SVGID_00000171686403910066635010000006557350911456343941_"  style="overflow:visible;"/>
	</clipPath>
	
		<linearGradient id="SVGID_00000106115131602644602890000011366191432423290775_" gradientUnits="userSpaceOnUse" x1="8.8373" y1="82.2668" x2="81.3333" y2="9.7708">
		<stop  offset="0" style="stop-color:#1F32B3"/>
		<stop  offset="0.54" style="stop-color:#5E17A8"/>
		<stop  offset="1" style="stop-color:#FF00FF"/>
	</linearGradient>
	
		<rect x="19" y="38.87" style="clip-path:url(#SVGID_00000067948148636435043300000009461562898752068013_);fill:url(#SVGID_00000106115131602644602890000011366191432423290775_);" width="37.69" height="28.79"/>
</g>
<g>
	<defs>
		<path id="SVGID_00000047022696071492508650000010979638075571585420_" d="M58.51,43.72C55.1,42.1,53.43,39.44,53.2,36
			c5.8-4.56,11.73-7.85,17.49-6.82c4.39,0.79,6.92,3.96,7.98,8.1c-4.23-9.04-17.24,3.73-17.24,3.73
			C60.51,41.84,59.53,42.75,58.51,43.72"/>
	</defs>
	<clipPath id="SVGID_00000129178909472397903250000005430636564957582498_">
		<use xlink:href="#SVGID_00000047022696071492508650000010979638075571585420_"  style="overflow:visible;"/>
	</clipPath>
	
		<linearGradient id="SVGID_00000155133929422217682640000012916929611844489143_" gradientUnits="userSpaceOnUse" x1="13.9442" y1="87.9264" x2="87.1113" y2="14.7593">
		<stop  offset="0" style="stop-color:#1F32B3"/>
		<stop  offset="0.54" style="stop-color:#5E17A8"/>
		<stop  offset="1" style="stop-color:#FF00FF"/>
	</linearGradient>
	
		<rect x="53.2" y="28.15" style="clip-path:url(#SVGID_00000129178909472397903250000005430636564957582498_);fill:url(#SVGID_00000155133929422217682640000012916929611844489143_);" width="25.47" height="15.57"/>
</g>
<defs>
	
		<filter id="Adobe_OpacityMaskFilter_00000003807589858098967390000009456246801415014785_" filterUnits="userSpaceOnUse" x="48.78" y="38.87" width="7.91" height="7.49">
		<feColorMatrix  type="matrix" values="1 0 0 0 0  0 1 0 0 0  0 0 1 0 0  0 0 0 1 0"/>
	</filter>
</defs>
<mask maskUnits="userSpaceOnUse" x="48.78" y="38.87" width="7.91" height="7.49" id="SVGID_00000032641923730933191630000017382143574292397696_">
	<g style="filter:url(#Adobe_OpacityMaskFilter_00000003807589858098967390000009456246801415014785_);">
		
			<linearGradient id="SVGID_00000087379972434370761380000009213397248858413984_" gradientUnits="userSpaceOnUse" x1="-2252.5178" y1="1308.4302" x2="-2266.4133" y2="1322.3257" gradientTransform="matrix(1 0 0 1 2315.2803 -1275.8438)">
			<stop  offset="0" style="stop-color:#FFFFFF"/>
			<stop  offset="1" style="stop-color:#000000"/>
		</linearGradient>
		
			<rect x="48.78" y="38.87" style="fill:url(#SVGID_00000087379972434370761380000009213397248858413984_);" width="7.91" height="7.49"/>
	</g>
</mask>
<path style="mask:url(#SVGID_00000032641923730933191630000017382143574292397696_);fill-rule:evenodd;clip-rule:evenodd;" d="
	M49.73,38.87c3.52,1.41,5.79,3.75,6.96,6.62l-0.9,0.87l-0.02-0.02c-2.11-2.14-4.47-4.41-6.96-6.62l-0.04-0.03
	C49.1,39.41,49.42,39.14,49.73,38.87"/>
<defs>
	
		<filter id="Adobe_OpacityMaskFilter_00000043422035794643905570000016592692413657599899_" filterUnits="userSpaceOnUse" x="53.84" y="38.99" width="2.09" height="3.04">
		<feColorMatrix  type="matrix" values="1 0 0 0 0  0 1 0 0 0  0 0 1 0 0  0 0 0 1 0"/>
	</filter>
</defs>
<mask maskUnits="userSpaceOnUse" x="53.84" y="38.99" width="2.09" height="3.04" id="SVGID_00000041285968534471799680000013178429058678958259_">
	<g style="filter:url(#Adobe_OpacityMaskFilter_00000043422035794643905570000016592692413657599899_);">
		
			<linearGradient id="SVGID_00000102544947689512949030000005887282684304222141_" gradientUnits="userSpaceOnUse" x1="-2271.7698" y1="1328.0063" x2="-2285.4185" y2="1341.6576" gradientTransform="matrix(1 0 0 1 2334.4131 -1295.2542)">
			<stop  offset="0" style="stop-color:#FFFFFF"/>
			<stop  offset="1" style="stop-color:#000000"/>
		</linearGradient>
		
			<rect x="53.84" y="38.99" style="fill:url(#SVGID_00000102544947689512949030000005887282684304222141_);" width="2.09" height="3.04"/>
	</g>
</mask>
<path style="mask:url(#SVGID_00000041285968534471799680000013178429058678958259_);fill-rule:evenodd;clip-rule:evenodd;" d="
	M55.94,42.02c-0.95-0.87-1.64-1.89-2.09-3.04C54.56,39.99,55.26,41.01,55.94,42.02"/>
<defs>
	
		<filter id="Adobe_OpacityMaskFilter_00000032615692539582530110000009846259962459210398_" filterUnits="userSpaceOnUse" x="20.83" y="29.45" width="56.23" height="30.56">
		<feColorMatrix  type="matrix" values="1 0 0 0 0  0 1 0 0 0  0 0 1 0 0  0 0 0 1 0"/>
	</filter>
</defs>
<mask maskUnits="userSpaceOnUse" x="20.83" y="29.45" width="56.23" height="30.56" id="SVGID_00000110447746083787806010000005092039227878666916_">
	<g style="filter:url(#Adobe_OpacityMaskFilter_00000032615692539582530110000009846259962459210398_);">
		
			<linearGradient id="SVGID_00000129194541030460819660000004125141654602460807_" gradientUnits="userSpaceOnUse" x1="-2157.9028" y1="1229.5776" x2="-2160.1821" y2="1254.309" gradientTransform="matrix(1 0 0 1 2209.5986 -1214.697)">
			<stop  offset="0" style="stop-color:#FFFFFF"/>
			<stop  offset="1" style="stop-color:#000000"/>
		</linearGradient>
		
			<rect x="20.83" y="29.45" style="fill:url(#SVGID_00000129194541030460819660000004125141654602460807_);" width="56.23" height="30.56"/>
	</g>
</mask>
<path style="mask:url(#SVGID_00000110447746083787806010000005092039227878666916_);fill-rule:evenodd;clip-rule:evenodd;fill:#FFBBD7;" d="
	M53.15,36.62c2.3-1.79,5.42-4,8.14-5.31c2.29-1.1,4.87-1.93,7.54-1.86c0.59,0.02,1.17,0.07,1.74,0.18c3.24,0.58,5.26,2.51,6.48,4.86
	c-0.53-0.36-1.14-0.63-1.86-0.78c-1.31-0.27-2.68-0.06-3.93,0.32c-1.36,0.42-2.66,1.07-3.85,1.77c-1.61,0.95-3.12,2.07-4.52,3.24
	c-0.64,0.53-1.29,1.1-1.87,1.67c-0.9,0.79-2.14,1.95-3.01,2.77C55.01,41.92,53.41,39.58,53.15,36.62 M56.48,44.99
	c-3.57,3.47-7.51,7.37-11.37,10.61c-3.21,2.11-7.12,4.01-11.25,4.35c-2.8,0.23-5.48-0.3-7.85-1.57c-1.86-1-3.47-2.42-4.65-4
	c-0.19-0.25-0.37-0.51-0.54-0.78c1.47,1.18,3.27,2.02,5.39,2.04c3.71,0.05,7.59-2.56,10.2-4.54c1.9-1.44,3.7-3,5.47-4.56
	c1.91-1.7,3.78-3.42,5.68-5.12c0.75-0.67,2.15-1.89,2.91-2.55C53.48,40.16,55.32,42.35,56.48,44.99z"/>
<defs>
	
		<filter id="Adobe_OpacityMaskFilter_00000049911443325237667780000002848766776565585335_" filterUnits="userSpaceOnUse" x="19.47" y="51.56" width="26" height="8.9">
		<feColorMatrix  type="matrix" values="1 0 0 0 0  0 1 0 0 0  0 0 1 0 0  0 0 0 1 0"/>
	</filter>
</defs>
<mask maskUnits="userSpaceOnUse" x="19.47" y="51.56" width="26" height="8.9" id="SVGID_00000148656711331635812460000003638478185422138765_">
	<g style="filter:url(#Adobe_OpacityMaskFilter_00000049911443325237667780000002848766776565585335_);">
		
			<linearGradient id="SVGID_00000008854270877217784060000015119340344222500737_" gradientUnits="userSpaceOnUse" x1="-2173.9626" y1="1280.6716" x2="-2171.1152" y2="1263.3652" gradientTransform="matrix(1 0 0 1 2204.4565 -1212.641)">
			<stop  offset="0" style="stop-color:#FFFFFF"/>
			<stop  offset="1" style="stop-color:#000000"/>
		</linearGradient>
		
			<rect x="19.47" y="51.56" style="fill:url(#SVGID_00000008854270877217784060000015119340344222500737_);" width="26" height="8.9"/>
	</g>
</mask>
<path style="mask:url(#SVGID_00000148656711331635812460000003638478185422138765_);fill-rule:evenodd;clip-rule:evenodd;" d="
	M45.47,55.95C27.71,67.65,19,53.09,19.49,51.56c1.81,2.19,4.1,3.6,6.74,3.63c0.71,0.01,1.45-0.09,2.2-0.27l0,0
	C33.36,58.11,40.55,57.63,45.47,55.95"/>
<g>
	<defs>
		<path id="SVGID_00000080165829338620737020000012726965851321134771_" d="M45.47,55.95c-6.17,5.18-12.81,9.37-19.17,9.28
			C14.25,65.06,5.65,55.92,2.29,45.51C1.33,23.66,19.93,23.73,25.05,25.66C5.92,26.99,16.47,71.24,45.47,55.95"/>
	</defs>
	<clipPath id="SVGID_00000093176756938918370530000016394716373972363393_">
		<use xlink:href="#SVGID_00000080165829338620737020000012726965851321134771_"  style="overflow:visible;"/>
	</clipPath>
	
		<linearGradient id="SVGID_00000135654036672238009760000006371818288095468722_" gradientUnits="userSpaceOnUse" x1="54.3253" y1="72.6788" x2="-9.6662" y2="20.4797">
		<stop  offset="0" style="stop-color:#0131B8"/>
		<stop  offset="0.41" style="stop-color:#07AA9F"/>
		<stop  offset="1" style="stop-color:#EBF855"/>
	</linearGradient>
	
		<rect x="1.33" y="23.66" style="clip-path:url(#SVGID_00000093176756938918370530000016394716373972363393_);fill:url(#SVGID_00000135654036672238009760000006371818288095468722_);" width="44.14" height="47.58"/>
</g>
<defs>
	
		<filter id="Adobe_OpacityMaskFilter_00000134226980901247617250000001823396859236401307_" filterUnits="userSpaceOnUse" x="2.26" y="24.87" width="22.8" height="20.64">
		<feColorMatrix  type="matrix" values="1 0 0 0 0  0 1 0 0 0  0 0 1 0 0  0 0 0 1 0"/>
	</filter>
</defs>
<mask maskUnits="userSpaceOnUse" x="2.26" y="24.87" width="22.8" height="20.64" id="SVGID_00000172411834845371242550000001659839102542643606_">
	<g style="filter:url(#Adobe_OpacityMaskFilter_00000134226980901247617250000001823396859236401307_);">
		
			<linearGradient id="SVGID_00000128475367813740236570000013372970693078761889_" gradientUnits="userSpaceOnUse" x1="-2145.7268" y1="1292.5209" x2="-2120.8132" y2="1320.3047" gradientTransform="matrix(1 0 0 1 2139.3762 -1279.6444)">
			<stop  offset="0" style="stop-color:#FFFFFF"/>
			<stop  offset="1" style="stop-color:#000000"/>
		</linearGradient>
		
			<rect x="2.26" y="24.87" style="fill:url(#SVGID_00000128475367813740236570000013372970693078761889_);" width="22.8" height="20.64"/>
	</g>
</mask>
<path style="mask:url(#SVGID_00000172411834845371242550000001659839102542643606_);fill-rule:evenodd;clip-rule:evenodd;" d="
	M2.29,45.51C1.33,23.66,19.93,23.73,25.05,25.66c-4.12,0.29-6.86,2.56-8.34,5.8l0,0C8.76,33.48,3.96,39.85,2.29,45.51"/>
<g>
	<defs>
		<path id="SVGID_00000055695367233888134610000012027170550782258825_" d="M49.73,38.87c-8.08-7.17-16.17-12.72-24.68-13.21
			c-7.41-0.42-21.97,2.26-22.76,19.85C-2.39,30.98,3.12,14,23.68,15.52C35.19,16.37,45.23,25.4,53.2,36
			c1.89,2.52,3.67,5.12,5.32,7.73c2.19,3.46,4.17,6.93,5.9,10.18c-1.7-2.02-4.41-5.07-7.72-8.42
			C54.58,43.34,52.22,41.07,49.73,38.87"/>
	</defs>
	<clipPath id="SVGID_00000088819014099636611840000007697949612930666413_">
		<use xlink:href="#SVGID_00000055695367233888134610000012027170550782258825_"  style="overflow:visible;"/>
	</clipPath>
	
		<linearGradient id="SVGID_00000124143036218151326960000009879937044188766863_" gradientUnits="userSpaceOnUse" x1="31.0096" y1="67.8803" x2="31.0096" y2="1.7692">
		<stop  offset="0" style="stop-color:#EA0E63"/>
		<stop  offset="1" style="stop-color:#FFFF00"/>
	</linearGradient>
	
		<rect x="-2.39" y="14" style="clip-path:url(#SVGID_00000088819014099636611840000007697949612930666413_);fill:url(#SVGID_00000124143036218151326960000009879937044188766863_);" width="66.81" height="39.91"/>
</g>
<path class="st27" d="M49.73,38.87L49.73,38.87l3.4-2.95L53.2,36c1.89,2.52,3.67,5.12,5.32,7.73l-1.82,1.76v0
	C54.58,43.34,52.22,41.07,49.73,38.87"/>
<defs>
	
		<filter id="Adobe_OpacityMaskFilter_00000034776452865591510550000002406417128981047975_" filterUnits="userSpaceOnUse" x="1.27" y="15.88" width="60.4" height="34.13">
		<feColorMatrix  type="matrix" values="1 0 0 0 0  0 1 0 0 0  0 0 1 0 0  0 0 0 1 0"/>
	</filter>
</defs>
<mask maskUnits="userSpaceOnUse" x="1.27" y="15.88" width="60.4" height="34.13" id="SVGID_00000083062547540411276770000014231533596710540985_">
	<g style="filter:url(#Adobe_OpacityMaskFilter_00000034776452865591510550000002406417128981047975_);">
		
			<linearGradient id="SVGID_00000046300699673996245220000009593493352582695553_" gradientUnits="userSpaceOnUse" x1="-2090.3809" y1="1265.699" x2="-2102.1538" y2="1288.5066" gradientTransform="matrix(1 0 0 1 2135.6543 -1259.4906)">
			<stop  offset="0" style="stop-color:#FFFFFF"/>
			<stop  offset="1" style="stop-color:#000000"/>
		</linearGradient>
		
			<rect x="1.27" y="15.88" style="fill:url(#SVGID_00000046300699673996245220000009593493352582695553_);" width="60.4" height="34.13"/>
	</g>
</mask>
<path style="mask:url(#SVGID_00000083062547540411276770000014231533596710540985_);fill-rule:evenodd;clip-rule:evenodd;fill:#FFFF00;" d="
	M61.67,50.01c-0.03-0.03-0.06-0.06-0.09-0.09c-1.46-1.6-2.95-3.17-4.48-4.72c-2.24-2.27-4.57-4.5-6.98-6.64
	c-1.96-1.74-3.98-3.44-6.1-5.05c-1.95-1.48-4-2.89-6.17-4.13c-3.81-2.18-8.11-3.91-12.77-4.17c-4.93-0.28-10.18,0.82-14.21,3.25
	c-5.55,3.35-8.04,8.58-8.84,14.06c-0.82-3.63-1.02-7.43-0.4-11.05c0.7-4.09,2.5-8.19,5.98-11.17c4.29-3.69,10.06-4.76,16.01-4.32
	c12.61,0.93,22.85,11.94,29.11,20.27c1.88,2.5,3.64,5.08,5.29,7.7C59.3,45.94,60.51,47.96,61.67,50.01"/>
</svg>
