<?xml version="1.0" encoding="UTF-8" standalone="no"?>
<!DOCTYPE svg PUBLIC "-//W3C//DTD SVG 1.1//EN" "http://www.w3.org/Graphics/SVG/1.1/DTD/svg11.dtd">
<svg width="100%" height="100%" viewBox="0 0 724 364" version="1.1" xmlns="http://www.w3.org/2000/svg" xmlns:xlink="http://www.w3.org/1999/xlink" xml:space="preserve" xmlns:serif="http://www.serif.com/" style="fill-rule:evenodd;clip-rule:evenodd;stroke-linejoin:round;stroke-miterlimit:2;">
    <g transform="matrix(1,0,0,1,-1095.54,-1621.99)">
        <g transform="matrix(1,0,0,0.634146,0,0)">
            <g transform="matrix(1,0,0,1,30.3801,-55.4698)">
                <g>
                    <g transform="matrix(-2.53334,0,0,2.53334,5168.05,-437.316)">
                        <g transform="matrix(0.991445,-0.205827,0.0827714,0.991445,-100.548,277.987)">
                            <g transform="matrix(0.2314,-1.52666,0.968124,0.3649,252.334,3049.65)">
                                <path d="M1334.6,802.494C1334.6,802.494 1327.86,816.655 1327.86,822.725C1327.86,826.447 1330.88,829.468 1334.6,829.468C1338.33,829.468 1341.35,826.447 1341.35,822.725C1341.35,816.655 1334.6,802.494 1334.6,802.494Z" style="fill:url(#_Linear1);"/>
                            </g>
                            <g transform="matrix(-0.528216,-1.33042,-0.843681,0.832955,2770.12,2401.03)">
                                <path d="M1334.6,802.494C1334.6,802.494 1327.86,816.655 1327.86,822.725C1327.86,826.447 1330.88,829.468 1334.6,829.468C1338.33,829.468 1341.35,826.447 1341.35,822.725C1341.35,816.655 1334.6,802.494 1334.6,802.494Z" style="fill:url(#_Linear2);"/>
                            </g>
                        </g>
                        <g transform="matrix(0.971045,-0.376724,0.151496,0.971045,-157.545,562.958)">
                            <g transform="matrix(0.2314,-1.52666,0.968124,0.3649,252.334,3049.65)">
                                <path d="M1334.6,802.494C1334.6,802.494 1327.86,816.655 1327.86,822.725C1327.86,826.447 1330.88,829.468 1334.6,829.468C1338.33,829.468 1341.35,826.447 1341.35,822.725C1341.35,816.655 1334.6,802.494 1334.6,802.494Z" style="fill:url(#_Linear3);"/>
                            </g>
                            <g transform="matrix(-0.528216,-1.33042,-0.843681,0.832955,2770.12,2401.03)">
                                <path d="M1334.6,802.494C1334.6,802.494 1327.86,816.655 1327.86,822.725C1327.86,826.447 1330.88,829.468 1334.6,829.468C1338.33,829.468 1341.35,826.447 1341.35,822.725C1341.35,816.655 1334.6,802.494 1334.6,802.494Z" style="fill:url(#_Linear4);"/>
                            </g>
                        </g>
                        <g transform="matrix(0.938835,-0.54304,0.218379,0.938835,-194.298,856.094)">
                            <g transform="matrix(0.2314,-1.52666,0.968124,0.3649,252.334,3049.65)">
                                <path d="M1334.6,802.494C1334.6,802.494 1327.86,816.655 1327.86,822.725C1327.86,826.447 1330.88,829.468 1334.6,829.468C1338.33,829.468 1341.35,826.447 1341.35,822.725C1341.35,816.655 1334.6,802.494 1334.6,802.494Z" style="fill:url(#_Linear5);"/>
                            </g>
                            <g transform="matrix(-0.528216,-1.33042,-0.843681,0.832955,2770.12,2401.03)">
                                <path d="M1334.6,802.494C1334.6,802.494 1327.86,816.655 1327.86,822.725C1327.86,826.447 1330.88,829.468 1334.6,829.468C1338.33,829.468 1341.35,826.447 1341.35,822.725C1341.35,816.655 1334.6,802.494 1334.6,802.494Z" style="fill:url(#_Linear6);"/>
                            </g>
                        </g>
                        <g transform="matrix(0.693084,-0.54408,0.218797,0.693084,148.636,1201.18)">
                            <g transform="matrix(0.2314,-1.52666,0.968124,0.3649,252.334,3049.65)">
                                <path d="M1334.6,802.494C1334.6,802.494 1327.86,816.655 1327.86,822.725C1327.86,826.447 1330.88,829.468 1334.6,829.468C1338.33,829.468 1341.35,826.447 1341.35,822.725C1341.35,816.655 1334.6,802.494 1334.6,802.494Z" style="fill:url(#_Linear7);"/>
                            </g>
                            <g transform="matrix(-0.528216,-1.33042,-0.843681,0.832955,2770.12,2401.03)">
                                <path d="M1334.6,802.494C1334.6,802.494 1327.86,816.655 1327.86,822.725C1327.86,826.447 1330.88,829.468 1334.6,829.468C1338.33,829.468 1341.35,826.447 1341.35,822.725C1341.35,816.655 1334.6,802.494 1334.6,802.494Z" style="fill:url(#_Linear8);"/>
                            </g>
                        </g>
                        <g transform="matrix(0.50392,-0.511845,0.205834,0.50392,431.182,1420.63)">
                            <g transform="matrix(0.2314,-1.52666,0.968124,0.3649,252.334,3049.65)">
                                <path d="M1334.6,802.494C1334.6,802.494 1327.86,816.655 1327.86,822.725C1327.86,826.447 1330.88,829.468 1334.6,829.468C1338.33,829.468 1341.35,826.447 1341.35,822.725C1341.35,816.655 1334.6,802.494 1334.6,802.494Z" style="fill:url(#_Linear9);"/>
                            </g>
                            <g transform="matrix(-0.528216,-1.33042,-0.843681,0.832955,2770.12,2401.03)">
                                <path d="M1334.6,802.494C1334.6,802.494 1327.86,816.655 1327.86,822.725C1327.86,826.447 1330.88,829.468 1334.6,829.468C1338.33,829.468 1341.35,826.447 1341.35,822.725C1341.35,816.655 1334.6,802.494 1334.6,802.494Z" style="fill:url(#_Linear10);"/>
                            </g>
                        </g>
                        <g transform="matrix(0.360099,-0.46161,0.185633,0.360099,660.467,1551.52)">
                            <g transform="matrix(0.2314,-1.52666,0.968124,0.3649,252.334,3049.65)">
                                <path d="M1334.6,802.494C1334.6,802.494 1327.86,816.655 1327.86,822.725C1327.86,826.447 1330.88,829.468 1334.6,829.468C1338.33,829.468 1341.35,826.447 1341.35,822.725C1341.35,816.655 1334.6,802.494 1334.6,802.494Z" style="fill:url(#_Linear11);"/>
                            </g>
                            <g transform="matrix(-0.528216,-1.33042,-0.843681,0.832955,2770.12,2401.03)">
                                <path d="M1334.6,802.494C1334.6,802.494 1327.86,816.655 1327.86,822.725C1327.86,826.447 1330.88,829.468 1334.6,829.468C1338.33,829.468 1341.35,826.447 1341.35,822.725C1341.35,816.655 1334.6,802.494 1334.6,802.494Z" style="fill:url(#_Linear12);"/>
                            </g>
                        </g>
                        <g transform="matrix(0.252144,-0.40362,0.162313,0.252144,843.979,1621.41)">
                            <g transform="matrix(0.2314,-1.52666,0.968124,0.3649,252.334,3049.65)">
                                <path d="M1334.6,802.494C1334.6,802.494 1327.86,816.655 1327.86,822.725C1327.86,826.447 1330.88,829.468 1334.6,829.468C1338.33,829.468 1341.35,826.447 1341.35,822.725C1341.35,816.655 1334.6,802.494 1334.6,802.494Z" style="fill:url(#_Linear13);"/>
                            </g>
                            <g transform="matrix(-0.528216,-1.33042,-0.843681,0.832955,2770.12,2401.03)">
                                <path d="M1334.6,802.494C1334.6,802.494 1327.86,816.655 1327.86,822.725C1327.86,826.447 1330.88,829.468 1334.6,829.468C1338.33,829.468 1341.35,826.447 1341.35,822.725C1341.35,816.655 1334.6,802.494 1334.6,802.494Z" style="fill:url(#_Linear14);"/>
                            </g>
                        </g>
                        <g transform="matrix(0.991445,-0.205827,0.0827714,0.991445,-100.548,277.987)">
                            <g transform="matrix(0.528441,-0.811943,0.514891,0.83331,230.749,1685.11)">
                                <path d="M1334.6,802.494C1334.6,802.494 1327.86,816.655 1327.86,822.725C1327.86,826.447 1330.88,829.468 1334.6,829.468C1338.33,829.468 1341.35,826.447 1341.35,822.725C1341.35,816.655 1334.6,802.494 1334.6,802.494Z" style="fill:url(#_Linear15);"/>
                            </g>
                            <g transform="matrix(0.638961,0.581734,-0.368905,1.00759,817.367,-318.283)">
                                <path d="M1334.6,802.494C1334.6,802.494 1327.86,816.655 1327.86,822.725C1327.86,826.447 1330.88,829.468 1334.6,829.468C1338.33,829.468 1341.35,826.447 1341.35,822.725C1341.35,816.655 1334.6,802.494 1334.6,802.494Z" style="fill:url(#_Linear16);"/>
                            </g>
                        </g>
                    </g>
                    <g transform="matrix(2.53334,0,0,2.53334,-2314.56,-437.316)">
                        <g transform="matrix(0.991445,-0.205827,0.0827714,0.991445,-100.548,277.987)">
                            <g transform="matrix(0.2314,-1.52666,0.968124,0.3649,252.334,3049.65)">
                                <path d="M1334.6,802.494C1334.6,802.494 1327.86,816.655 1327.86,822.725C1327.86,826.447 1330.88,829.468 1334.6,829.468C1338.33,829.468 1341.35,826.447 1341.35,822.725C1341.35,816.655 1334.6,802.494 1334.6,802.494Z" style="fill:url(#_Linear17);"/>
                            </g>
                            <g transform="matrix(-0.528216,-1.33042,-0.843681,0.832955,2770.12,2401.03)">
                                <path d="M1334.6,802.494C1334.6,802.494 1327.86,816.655 1327.86,822.725C1327.86,826.447 1330.88,829.468 1334.6,829.468C1338.33,829.468 1341.35,826.447 1341.35,822.725C1341.35,816.655 1334.6,802.494 1334.6,802.494Z" style="fill:url(#_Linear18);"/>
                            </g>
                        </g>
                        <g transform="matrix(0.971045,-0.376724,0.151496,0.971045,-157.545,562.958)">
                            <g transform="matrix(0.2314,-1.52666,0.968124,0.3649,252.334,3049.65)">
                                <path d="M1334.6,802.494C1334.6,802.494 1327.86,816.655 1327.86,822.725C1327.86,826.447 1330.88,829.468 1334.6,829.468C1338.33,829.468 1341.35,826.447 1341.35,822.725C1341.35,816.655 1334.6,802.494 1334.6,802.494Z" style="fill:url(#_Linear19);"/>
                            </g>
                            <g transform="matrix(-0.528216,-1.33042,-0.843681,0.832955,2770.12,2401.03)">
                                <path d="M1334.6,802.494C1334.6,802.494 1327.86,816.655 1327.86,822.725C1327.86,826.447 1330.88,829.468 1334.6,829.468C1338.33,829.468 1341.35,826.447 1341.35,822.725C1341.35,816.655 1334.6,802.494 1334.6,802.494Z" style="fill:url(#_Linear20);"/>
                            </g>
                        </g>
                        <g transform="matrix(0.938835,-0.54304,0.218379,0.938835,-194.298,856.094)">
                            <g transform="matrix(0.2314,-1.52666,0.968124,0.3649,252.334,3049.65)">
                                <path d="M1334.6,802.494C1334.6,802.494 1327.86,816.655 1327.86,822.725C1327.86,826.447 1330.88,829.468 1334.6,829.468C1338.33,829.468 1341.35,826.447 1341.35,822.725C1341.35,816.655 1334.6,802.494 1334.6,802.494Z" style="fill:url(#_Linear21);"/>
                            </g>
                            <g transform="matrix(-0.528216,-1.33042,-0.843681,0.832955,2770.12,2401.03)">
                                <path d="M1334.6,802.494C1334.6,802.494 1327.86,816.655 1327.86,822.725C1327.86,826.447 1330.88,829.468 1334.6,829.468C1338.33,829.468 1341.35,826.447 1341.35,822.725C1341.35,816.655 1334.6,802.494 1334.6,802.494Z" style="fill:url(#_Linear22);"/>
                            </g>
                        </g>
                        <g transform="matrix(0.693084,-0.54408,0.218797,0.693084,148.636,1201.18)">
                            <g transform="matrix(0.2314,-1.52666,0.968124,0.3649,252.334,3049.65)">
                                <path d="M1334.6,802.494C1334.6,802.494 1327.86,816.655 1327.86,822.725C1327.86,826.447 1330.88,829.468 1334.6,829.468C1338.33,829.468 1341.35,826.447 1341.35,822.725C1341.35,816.655 1334.6,802.494 1334.6,802.494Z" style="fill:url(#_Linear23);"/>
                            </g>
                            <g transform="matrix(-0.528216,-1.33042,-0.843681,0.832955,2770.12,2401.03)">
                                <path d="M1334.6,802.494C1334.6,802.494 1327.86,816.655 1327.86,822.725C1327.86,826.447 1330.88,829.468 1334.6,829.468C1338.33,829.468 1341.35,826.447 1341.35,822.725C1341.35,816.655 1334.6,802.494 1334.6,802.494Z" style="fill:url(#_Linear24);"/>
                            </g>
                        </g>
                        <g transform="matrix(0.50392,-0.511845,0.205834,0.50392,431.182,1420.63)">
                            <g transform="matrix(0.2314,-1.52666,0.968124,0.3649,252.334,3049.65)">
                                <path d="M1334.6,802.494C1334.6,802.494 1327.86,816.655 1327.86,822.725C1327.86,826.447 1330.88,829.468 1334.6,829.468C1338.33,829.468 1341.35,826.447 1341.35,822.725C1341.35,816.655 1334.6,802.494 1334.6,802.494Z" style="fill:url(#_Linear25);"/>
                            </g>
                            <g transform="matrix(-0.528216,-1.33042,-0.843681,0.832955,2770.12,2401.03)">
                                <path d="M1334.6,802.494C1334.6,802.494 1327.86,816.655 1327.86,822.725C1327.86,826.447 1330.88,829.468 1334.6,829.468C1338.33,829.468 1341.35,826.447 1341.35,822.725C1341.35,816.655 1334.6,802.494 1334.6,802.494Z" style="fill:url(#_Linear26);"/>
                            </g>
                        </g>
                        <g transform="matrix(0.360099,-0.46161,0.185633,0.360099,660.467,1551.52)">
                            <g transform="matrix(0.2314,-1.52666,0.968124,0.3649,252.334,3049.65)">
                                <path d="M1334.6,802.494C1334.6,802.494 1327.86,816.655 1327.86,822.725C1327.86,826.447 1330.88,829.468 1334.6,829.468C1338.33,829.468 1341.35,826.447 1341.35,822.725C1341.35,816.655 1334.6,802.494 1334.6,802.494Z" style="fill:url(#_Linear27);"/>
                            </g>
                            <g transform="matrix(-0.528216,-1.33042,-0.843681,0.832955,2770.12,2401.03)">
                                <path d="M1334.6,802.494C1334.6,802.494 1327.86,816.655 1327.86,822.725C1327.86,826.447 1330.88,829.468 1334.6,829.468C1338.33,829.468 1341.35,826.447 1341.35,822.725C1341.35,816.655 1334.6,802.494 1334.6,802.494Z" style="fill:url(#_Linear28);"/>
                            </g>
                        </g>
                        <g transform="matrix(0.252144,-0.40362,0.162313,0.252144,843.979,1621.41)">
                            <g transform="matrix(0.2314,-1.52666,0.968124,0.3649,252.334,3049.65)">
                                <path d="M1334.6,802.494C1334.6,802.494 1327.86,816.655 1327.86,822.725C1327.86,826.447 1330.88,829.468 1334.6,829.468C1338.33,829.468 1341.35,826.447 1341.35,822.725C1341.35,816.655 1334.6,802.494 1334.6,802.494Z" style="fill:url(#_Linear29);"/>
                            </g>
                            <g transform="matrix(-0.528216,-1.33042,-0.843681,0.832955,2770.12,2401.03)">
                                <path d="M1334.6,802.494C1334.6,802.494 1327.86,816.655 1327.86,822.725C1327.86,826.447 1330.88,829.468 1334.6,829.468C1338.33,829.468 1341.35,826.447 1341.35,822.725C1341.35,816.655 1334.6,802.494 1334.6,802.494Z" style="fill:url(#_Linear30);"/>
                            </g>
                        </g>
                        <g transform="matrix(0.991445,-0.205827,0.0827714,0.991445,-100.548,277.987)">
                            <g transform="matrix(0.528441,-0.811943,0.514891,0.83331,230.749,1685.11)">
                                <path d="M1334.6,802.494C1334.6,802.494 1327.86,816.655 1327.86,822.725C1327.86,826.447 1330.88,829.468 1334.6,829.468C1338.33,829.468 1341.35,826.447 1341.35,822.725C1341.35,816.655 1334.6,802.494 1334.6,802.494Z" style="fill:url(#_Linear31);"/>
                            </g>
                            <g transform="matrix(0.638961,0.581734,-0.368905,1.00759,817.367,-318.283)">
                                <path d="M1334.6,802.494C1334.6,802.494 1327.86,816.655 1327.86,822.725C1327.86,826.447 1330.88,829.468 1334.6,829.468C1338.33,829.468 1341.35,826.447 1341.35,822.725C1341.35,816.655 1334.6,802.494 1334.6,802.494Z" style="fill:url(#_Linear32);"/>
                            </g>
                        </g>
                    </g>
                    <g>
                        <g transform="matrix(1,0,0,1.57692,0,0)">
                            <path d="M1675.32,1712.64C1675.32,1699.3 1670.02,1686.51 1660.59,1677.08C1651.16,1667.64 1638.37,1662.34 1625.03,1662.34L1259.88,1662.34C1232.1,1662.34 1209.59,1684.86 1209.59,1712.64L1209.59,1713.64C1209.59,1741.98 1232.56,1764.95 1260.89,1764.95C1350.48,1764.95 1534.43,1764.95 1624.02,1764.95C1652.36,1764.95 1675.32,1741.98 1675.32,1713.64C1675.32,1713.31 1675.32,1712.97 1675.32,1712.64ZM1627.18,1713.64C1627.18,1710.59 1625.96,1707.66 1623.8,1705.5C1621.64,1703.34 1618.71,1702.12 1615.66,1702.12C1560.56,1702.12 1324.35,1702.12 1269.25,1702.12C1266.2,1702.12 1263.27,1703.34 1261.11,1705.5C1258.95,1707.66 1257.73,1710.59 1257.73,1713.64C1257.73,1713.64 1257.73,1713.64 1257.73,1713.65C1257.73,1716.7 1258.95,1719.63 1261.11,1721.79C1263.27,1723.95 1266.2,1725.17 1269.25,1725.17C1324.35,1725.17 1560.56,1725.17 1615.66,1725.17C1618.71,1725.17 1621.64,1723.95 1623.8,1721.79C1625.96,1719.63 1627.18,1716.7 1627.18,1713.65C1627.18,1713.64 1627.18,1713.64 1627.18,1713.64Z" style="fill:rgb(251,170,8);"/>
                        </g>
                        <g transform="matrix(1,0,0,1.57692,0,0)">
                            <path d="M1259.88,1662.34L1610.03,1662.34C1623.37,1662.34 1636.16,1667.64 1645.59,1677.08C1655.02,1686.51 1660.32,1699.3 1660.32,1712.64L1660.32,1713.64C1660.32,1741.98 1637.36,1764.95 1609.02,1764.95L1260.89,1764.95C1350.48,1764.95 1534.43,1764.95 1624.02,1764.95C1652.36,1764.95 1675.32,1741.98 1675.32,1713.64C1675.32,1713.31 1675.32,1712.97 1675.32,1712.64C1675.32,1699.3 1670.02,1686.51 1660.59,1677.08C1651.16,1667.64 1638.37,1662.34 1625.03,1662.34L1259.88,1662.34ZM1600.66,1702.12C1545.56,1702.12 1309.35,1702.12 1254.25,1702.12C1251.2,1702.12 1248.27,1703.34 1246.11,1705.5C1243.95,1707.66 1242.73,1710.59 1242.73,1713.64C1242.73,1713.64 1242.73,1713.64 1242.73,1713.65C1242.73,1716.7 1243.95,1719.63 1246.11,1721.79C1248.27,1723.95 1251.2,1725.17 1254.25,1725.17L1269.25,1725.17C1266.2,1725.17 1263.27,1723.95 1261.11,1721.79C1258.95,1719.63 1257.73,1716.7 1257.73,1713.65C1257.73,1713.64 1257.73,1713.64 1257.73,1713.64C1257.73,1710.59 1258.95,1707.66 1261.11,1705.5C1263.27,1703.34 1266.2,1702.12 1269.25,1702.12L1600.66,1702.12Z" style="fill:rgb(192,143,80);"/>
                        </g>
                        <g transform="matrix(3.86009,0,0,6.08707,-4195.53,-2093.42)">
                            <path d="M1420.78,774.399C1421.61,773.648 1422.7,773.219 1423.84,773.219L1497.85,773.219C1498.9,773.219 1499.91,773.63 1500.65,774.344C1503.31,773.561 1490.51,810.163 1489.16,808.482L1483.97,820.86C1482.9,823.405 1480.41,825.06 1477.65,825.06L1469.39,825.06L1469.39,857.392C1469.39,857.392 1479.73,857.392 1485.57,857.392C1487.71,857.392 1489.46,859.134 1489.46,861.282L1489.46,867.426L1431.48,867.426C1431.48,867.426 1431.48,864.103 1431.48,861.282C1431.48,859.134 1433.23,857.392 1435.37,857.392L1450.44,857.392L1450.44,825.06C1450.44,825.06 1445.91,825.06 1442.49,825.06C1440.21,825.06 1438.16,823.694 1437.28,821.593L1431.88,808.735C1430.57,810.293 1418.07,773.561 1420.78,774.399Z" style="fill:rgb(251,170,8);"/>
                        </g>
                        <g transform="matrix(1,0,0,1.57692,0,0)">
                            <path d="M1500.7,1857.16C1496.28,1857.46 1491.96,1855.73 1488.98,1852.44C1486,1849.16 1484.69,1844.69 1485.42,1840.32C1492.01,1800.75 1508.32,1703.09 1514,1669.08C1515.15,1662.2 1521.1,1657.16 1528.07,1657.16C1528.07,1657.16 1528.07,1657.16 1528.07,1657.16C1532.52,1657.16 1536.75,1659.12 1539.62,1662.52C1542.5,1665.91 1543.73,1670.4 1543,1674.79C1536.34,1714.69 1520.24,1811.07 1514.58,1844.93C1513.46,1851.64 1507.88,1856.71 1501.1,1857.18C1500.96,1857.16 1500.83,1857.16 1500.7,1857.16Z" style="fill:rgb(235,201,150);"/>
                        </g>
                        <g transform="matrix(1,0,0,1.57692,0,0)">
                            <path d="M1505.7,1982.08C1508.67,1982.45 1511.49,1983.69 1513.79,1985.69C1517.15,1988.62 1519.04,1992.87 1518.98,1997.31C1518.98,1997.31 1518.92,2001.43 1518.85,2006.23C1518.74,2014.32 1512.15,2020.81 1504.06,2020.81C1504.06,2020.81 1504.06,2020.81 1504.06,2020.81C1500.11,2020.81 1496.33,2019.23 1493.56,2016.42C1490.79,2013.61 1489.26,2009.81 1489.32,2005.86C1489.39,2000.63 1489.45,1996.04 1489.45,1996.04C1489.55,1989.07 1494.68,1983.19 1501.57,1982.14C1501.57,1982.14 1501.57,1982.14 1501.57,1982.14C1501.71,1982.12 1501.86,1982.1 1502,1982.08L1505.7,1982.08Z" style="fill:rgb(235,201,150);"/>
                        </g>
                    </g>
                </g>
            </g>
        </g>
    </g>
    <defs>
        <linearGradient id="_Linear1" x1="0" y1="0" x2="1" y2="0" gradientUnits="userSpaceOnUse" gradientTransform="matrix(-9.07779,-80.917,-80.917,9.07779,1321.46,887.298)"><stop offset="0" style="stop-color:rgb(242,183,112);stop-opacity:1"/><stop offset="1" style="stop-color:rgb(233,126,0);stop-opacity:1"/></linearGradient>
        <linearGradient id="_Linear2" x1="0" y1="0" x2="1" y2="0" gradientUnits="userSpaceOnUse" gradientTransform="matrix(51.3432,63.1968,-63.1968,51.3432,1285.59,798.782)"><stop offset="0" style="stop-color:rgb(242,183,112);stop-opacity:1"/><stop offset="1" style="stop-color:rgb(233,126,0);stop-opacity:1"/></linearGradient>
        <linearGradient id="_Linear3" x1="0" y1="0" x2="1" y2="0" gradientUnits="userSpaceOnUse" gradientTransform="matrix(-0.112868,-81.4245,-81.4245,0.112868,1331.15,880.045)"><stop offset="0" style="stop-color:rgb(242,183,112);stop-opacity:1"/><stop offset="1" style="stop-color:rgb(233,126,0);stop-opacity:1"/></linearGradient>
        <linearGradient id="_Linear4" x1="0" y1="0" x2="1" y2="0" gradientUnits="userSpaceOnUse" gradientTransform="matrix(57.9896,57.1592,-57.1592,57.9896,1297.55,796.961)"><stop offset="0" style="stop-color:rgb(242,183,112);stop-opacity:1"/><stop offset="1" style="stop-color:rgb(233,126,0);stop-opacity:1"/></linearGradient>
        <linearGradient id="_Linear5" x1="0" y1="0" x2="1" y2="0" gradientUnits="userSpaceOnUse" gradientTransform="matrix(8.85343,-80.9418,-80.9418,-8.85343,1341.57,873.902)"><stop offset="0" style="stop-color:rgb(242,183,112);stop-opacity:1"/><stop offset="1" style="stop-color:rgb(233,126,0);stop-opacity:1"/></linearGradient>
        <linearGradient id="_Linear6" x1="0" y1="0" x2="1" y2="0" gradientUnits="userSpaceOnUse" gradientTransform="matrix(63.9307,50.4264,-50.4264,63.9307,1309.24,793.833)"><stop offset="0" style="stop-color:rgb(242,183,112);stop-opacity:1"/><stop offset="1" style="stop-color:rgb(233,126,0);stop-opacity:1"/></linearGradient>
        <linearGradient id="_Linear7" x1="0" y1="0" x2="1" y2="0" gradientUnits="userSpaceOnUse" gradientTransform="matrix(22.8774,-102.652,-102.652,-22.8774,1356.11,880.904)"><stop offset="0" style="stop-color:rgb(242,183,112);stop-opacity:1"/><stop offset="1" style="stop-color:rgb(233,126,0);stop-opacity:1"/></linearGradient>
        <linearGradient id="_Linear8" x1="0" y1="0" x2="1" y2="0" gradientUnits="userSpaceOnUse" gradientTransform="matrix(89.2445,55.644,-55.644,89.2445,1314.44,778.558)"><stop offset="0" style="stop-color:rgb(242,183,112);stop-opacity:1"/><stop offset="1" style="stop-color:rgb(233,126,0);stop-opacity:1"/></linearGradient>
        <linearGradient id="_Linear9" x1="0" y1="0" x2="1" y2="0" gradientUnits="userSpaceOnUse" gradientTransform="matrix(43.9688,-128.529,-128.529,-43.9688,1373.78,891.96)"><stop offset="0" style="stop-color:rgb(242,183,112);stop-opacity:1"/><stop offset="1" style="stop-color:rgb(233,126,0);stop-opacity:1"/></linearGradient>
        <linearGradient id="_Linear10" x1="0" y1="0" x2="1" y2="0" gradientUnits="userSpaceOnUse" gradientTransform="matrix(122.484,58.7421,-58.7421,122.484,1318.94,758.208)"><stop offset="0" style="stop-color:rgb(242,183,112);stop-opacity:1"/><stop offset="1" style="stop-color:rgb(233,126,0);stop-opacity:1"/></linearGradient>
        <linearGradient id="_Linear11" x1="0" y1="0" x2="1" y2="0" gradientUnits="userSpaceOnUse" gradientTransform="matrix(74.7257,-158.749,-158.749,-74.7257,1394.88,908.665)"><stop offset="0" style="stop-color:rgb(242,183,112);stop-opacity:1"/><stop offset="1" style="stop-color:rgb(233,126,0);stop-opacity:1"/></linearGradient>
        <linearGradient id="_Linear12" x1="0" y1="0" x2="1" y2="0" gradientUnits="userSpaceOnUse" gradientTransform="matrix(165.596,57.9921,-57.9921,165.596,1321.82,731.444)"><stop offset="0" style="stop-color:rgb(242,183,112);stop-opacity:1"/><stop offset="1" style="stop-color:rgb(233,126,0);stop-opacity:1"/></linearGradient>
        <linearGradient id="_Linear13" x1="0" y1="0" x2="1" y2="0" gradientUnits="userSpaceOnUse" gradientTransform="matrix(118.509,-193.171,-193.171,-118.509,1419.61,933.114)"><stop offset="0" style="stop-color:rgb(242,183,112);stop-opacity:1"/><stop offset="1" style="stop-color:rgb(233,126,0);stop-opacity:1"/></linearGradient>
        <linearGradient id="_Linear14" x1="0" y1="0" x2="1" y2="0" gradientUnits="userSpaceOnUse" gradientTransform="matrix(220.837,50.8977,-50.8977,220.837,1321.71,696.675)"><stop offset="0" style="stop-color:rgb(242,183,112);stop-opacity:1"/><stop offset="1" style="stop-color:rgb(233,126,0);stop-opacity:1"/></linearGradient>
        <linearGradient id="_Linear15" x1="0" y1="0" x2="1" y2="0" gradientUnits="userSpaceOnUse" gradientTransform="matrix(-68.6878,-85.7286,-85.7286,68.6878,1349.09,919.557)"><stop offset="0" style="stop-color:rgb(242,183,112);stop-opacity:1"/><stop offset="1" style="stop-color:rgb(233,126,0);stop-opacity:1"/></linearGradient>
        <linearGradient id="_Linear16" x1="0" y1="0" x2="1" y2="0" gradientUnits="userSpaceOnUse" gradientTransform="matrix(-101.15,42.8492,42.8492,101.15,1423.52,839.799)"><stop offset="0" style="stop-color:rgb(242,183,112);stop-opacity:1"/><stop offset="1" style="stop-color:rgb(233,126,0);stop-opacity:1"/></linearGradient>
        <linearGradient id="_Linear17" x1="0" y1="0" x2="1" y2="0" gradientUnits="userSpaceOnUse" gradientTransform="matrix(-9.07779,-80.917,-80.917,9.07779,1321.46,887.298)"><stop offset="0" style="stop-color:rgb(242,183,112);stop-opacity:1"/><stop offset="1" style="stop-color:rgb(233,126,0);stop-opacity:1"/></linearGradient>
        <linearGradient id="_Linear18" x1="0" y1="0" x2="1" y2="0" gradientUnits="userSpaceOnUse" gradientTransform="matrix(51.3432,63.1968,-63.1968,51.3432,1285.59,798.782)"><stop offset="0" style="stop-color:rgb(242,183,112);stop-opacity:1"/><stop offset="1" style="stop-color:rgb(233,126,0);stop-opacity:1"/></linearGradient>
        <linearGradient id="_Linear19" x1="0" y1="0" x2="1" y2="0" gradientUnits="userSpaceOnUse" gradientTransform="matrix(-0.112868,-81.4245,-81.4245,0.112868,1331.15,880.045)"><stop offset="0" style="stop-color:rgb(242,183,112);stop-opacity:1"/><stop offset="1" style="stop-color:rgb(233,126,0);stop-opacity:1"/></linearGradient>
        <linearGradient id="_Linear20" x1="0" y1="0" x2="1" y2="0" gradientUnits="userSpaceOnUse" gradientTransform="matrix(57.9896,57.1592,-57.1592,57.9896,1297.55,796.961)"><stop offset="0" style="stop-color:rgb(242,183,112);stop-opacity:1"/><stop offset="1" style="stop-color:rgb(233,126,0);stop-opacity:1"/></linearGradient>
        <linearGradient id="_Linear21" x1="0" y1="0" x2="1" y2="0" gradientUnits="userSpaceOnUse" gradientTransform="matrix(8.85343,-80.9418,-80.9418,-8.85343,1341.57,873.902)"><stop offset="0" style="stop-color:rgb(242,183,112);stop-opacity:1"/><stop offset="1" style="stop-color:rgb(233,126,0);stop-opacity:1"/></linearGradient>
        <linearGradient id="_Linear22" x1="0" y1="0" x2="1" y2="0" gradientUnits="userSpaceOnUse" gradientTransform="matrix(63.9307,50.4264,-50.4264,63.9307,1309.24,793.833)"><stop offset="0" style="stop-color:rgb(242,183,112);stop-opacity:1"/><stop offset="1" style="stop-color:rgb(233,126,0);stop-opacity:1"/></linearGradient>
        <linearGradient id="_Linear23" x1="0" y1="0" x2="1" y2="0" gradientUnits="userSpaceOnUse" gradientTransform="matrix(22.8774,-102.652,-102.652,-22.8774,1356.11,880.904)"><stop offset="0" style="stop-color:rgb(242,183,112);stop-opacity:1"/><stop offset="1" style="stop-color:rgb(233,126,0);stop-opacity:1"/></linearGradient>
        <linearGradient id="_Linear24" x1="0" y1="0" x2="1" y2="0" gradientUnits="userSpaceOnUse" gradientTransform="matrix(89.2445,55.644,-55.644,89.2445,1314.44,778.558)"><stop offset="0" style="stop-color:rgb(242,183,112);stop-opacity:1"/><stop offset="1" style="stop-color:rgb(233,126,0);stop-opacity:1"/></linearGradient>
        <linearGradient id="_Linear25" x1="0" y1="0" x2="1" y2="0" gradientUnits="userSpaceOnUse" gradientTransform="matrix(43.9688,-128.529,-128.529,-43.9688,1373.78,891.96)"><stop offset="0" style="stop-color:rgb(242,183,112);stop-opacity:1"/><stop offset="1" style="stop-color:rgb(233,126,0);stop-opacity:1"/></linearGradient>
        <linearGradient id="_Linear26" x1="0" y1="0" x2="1" y2="0" gradientUnits="userSpaceOnUse" gradientTransform="matrix(122.484,58.7421,-58.7421,122.484,1318.94,758.208)"><stop offset="0" style="stop-color:rgb(242,183,112);stop-opacity:1"/><stop offset="1" style="stop-color:rgb(233,126,0);stop-opacity:1"/></linearGradient>
        <linearGradient id="_Linear27" x1="0" y1="0" x2="1" y2="0" gradientUnits="userSpaceOnUse" gradientTransform="matrix(74.7257,-158.749,-158.749,-74.7257,1394.88,908.665)"><stop offset="0" style="stop-color:rgb(242,183,112);stop-opacity:1"/><stop offset="1" style="stop-color:rgb(233,126,0);stop-opacity:1"/></linearGradient>
        <linearGradient id="_Linear28" x1="0" y1="0" x2="1" y2="0" gradientUnits="userSpaceOnUse" gradientTransform="matrix(165.596,57.9921,-57.9921,165.596,1321.82,731.444)"><stop offset="0" style="stop-color:rgb(242,183,112);stop-opacity:1"/><stop offset="1" style="stop-color:rgb(233,126,0);stop-opacity:1"/></linearGradient>
        <linearGradient id="_Linear29" x1="0" y1="0" x2="1" y2="0" gradientUnits="userSpaceOnUse" gradientTransform="matrix(118.509,-193.171,-193.171,-118.509,1419.61,933.114)"><stop offset="0" style="stop-color:rgb(242,183,112);stop-opacity:1"/><stop offset="1" style="stop-color:rgb(233,126,0);stop-opacity:1"/></linearGradient>
        <linearGradient id="_Linear30" x1="0" y1="0" x2="1" y2="0" gradientUnits="userSpaceOnUse" gradientTransform="matrix(220.837,50.8977,-50.8977,220.837,1321.71,696.675)"><stop offset="0" style="stop-color:rgb(242,183,112);stop-opacity:1"/><stop offset="1" style="stop-color:rgb(233,126,0);stop-opacity:1"/></linearGradient>
        <linearGradient id="_Linear31" x1="0" y1="0" x2="1" y2="0" gradientUnits="userSpaceOnUse" gradientTransform="matrix(-68.6878,-85.7286,-85.7286,68.6878,1349.09,919.557)"><stop offset="0" style="stop-color:rgb(242,183,112);stop-opacity:1"/><stop offset="1" style="stop-color:rgb(233,126,0);stop-opacity:1"/></linearGradient>
        <linearGradient id="_Linear32" x1="0" y1="0" x2="1" y2="0" gradientUnits="userSpaceOnUse" gradientTransform="matrix(-101.15,42.8492,42.8492,101.15,1423.52,839.799)"><stop offset="0" style="stop-color:rgb(242,183,112);stop-opacity:1"/><stop offset="1" style="stop-color:rgb(233,126,0);stop-opacity:1"/></linearGradient>
    </defs>
</svg>
