<?xml version="1.0" encoding="UTF-8" standalone="no"?>
<!DOCTYPE svg PUBLIC "-//W3C//DTD SVG 1.1//EN" "http://www.w3.org/Graphics/SVG/1.1/DTD/svg11.dtd">
<svg width="100%" height="100%" viewBox="0 0 375 317" version="1.1" xmlns="http://www.w3.org/2000/svg" xmlns:xlink="http://www.w3.org/1999/xlink" xml:space="preserve" xmlns:serif="http://www.serif.com/" style="fill-rule:evenodd;clip-rule:evenodd;stroke-linejoin:round;stroke-miterlimit:2;">
    <g transform="matrix(1,0,0,1,-3088.77,-1339.72)">
        <g transform="matrix(1,0,0,1,-0.648294,0)">
            <g transform="matrix(1,0,0,0.634146,1820.13,1087.21)">
                <g transform="matrix(1,0,0,1.57692,4.19129,-120.62)">
                    <path d="M1575.28,470.328C1575.28,431.826 1544.02,400.567 1505.52,400.567L1400.37,400.567C1361.87,400.567 1330.61,431.826 1330.61,470.328L1330.61,575.472C1330.61,613.974 1361.87,645.233 1400.37,645.233L1505.52,645.233C1544.02,645.233 1575.28,613.974 1575.28,575.472L1575.28,470.328Z" style="fill:rgb(251,170,8);"/>
                </g>
                <g transform="matrix(1,0,0,1.57692,0,0)">
                    <path d="M1572.02,362.451C1573.62,368.307 1574.47,374.473 1574.47,380.837L1574.47,485.982C1574.47,524.484 1543.21,555.742 1504.71,555.742L1399.56,555.742C1372.35,555.742 1348.75,540.122 1337.26,517.368C1345.34,546.964 1372.43,568.742 1404.56,568.742L1509.71,568.742C1548.21,568.742 1579.47,537.484 1579.47,498.982L1579.47,393.837C1579.47,382.553 1576.78,371.89 1572.02,362.451Z" style="fill:rgb(192,143,80);"/>
                </g>
                <g transform="matrix(1.46959,0,0,2.79406,870.991,-435.462)">
                    <path d="M388.097,302.162C394.642,297.097 403.784,297.097 410.33,302.162C434.594,320.939 492.556,365.793 522.952,389.315C525.78,391.504 526.904,395.249 525.747,398.633C524.591,402.018 521.41,404.292 517.834,404.292L278.762,404.292C275.453,404.292 272.51,402.188 271.44,399.057C270.37,395.926 271.41,392.461 274.026,390.436C303.993,367.246 363.442,321.242 388.097,302.162Z" style="fill:rgb(248,45,99);"/>
                </g>
            </g>
        </g>
    </g>
</svg>
