<?xml version="1.0" encoding="UTF-8" standalone="no"?>
<!DOCTYPE svg PUBLIC "-//W3C//DTD SVG 1.1//EN" "http://www.w3.org/Graphics/SVG/1.1/DTD/svg11.dtd">
<svg width="100%" height="100%" viewBox="0 0 375 345" version="1.1" xmlns="http://www.w3.org/2000/svg" xmlns:xlink="http://www.w3.org/1999/xlink" xml:space="preserve" xmlns:serif="http://www.serif.com/" style="fill-rule:evenodd;clip-rule:evenodd;stroke-linejoin:round;stroke-miterlimit:2;">
    <g transform="matrix(1,0,0,1,-3830.54,-790.155)">
        <g transform="matrix(1,0,0,1,-0.648294,0)">
            <g transform="matrix(1.85563,0,0,0.841206,2494.63,366.333)">
                <g transform="matrix(0.825648,0,0,1.42622,143.197,113.09)">
                    <path d="M918.532,409.782C918.532,409.782 933.235,497.997 940.162,539.561C941.025,544.737 940.011,550.134 937.404,554.247C934.796,558.36 930.874,560.749 926.73,560.749L715.098,560.749C711.149,560.749 707.411,558.472 704.926,554.552C702.441,550.632 701.475,545.489 702.297,540.556C709.152,499.424 724.093,409.782 724.093,409.782C724.093,409.782 720.149,384.129 717.079,364.158C716.203,358.464 717.369,352.569 720.256,348.087C723.143,343.606 727.449,341.01 731.993,341.01C773.541,341.01 873.778,341.01 912.994,341.01C916.957,341.01 920.712,343.274 923.23,347.183C925.748,351.091 926.765,356.233 926.001,361.199C922.882,381.49 918.532,409.782 918.532,409.782Z" style="fill:rgb(251,170,8);"/>
                </g>
                <g transform="matrix(0.538899,0,0,1.18877,-260.52,144.195)">
                    <path d="M1971.54,426.586L1971.54,361.771C1971.54,346.368 1984.02,333.882 1999.43,333.882L2032.39,333.882C2039.4,333.882 2046.13,336.669 2051.09,341.63C2056.05,346.591 2058.84,353.32 2058.84,360.335L2058.84,426.586L2096.67,426.586L2096.67,364.219C2096.67,347.857 2090.17,332.164 2078.6,320.594C2067.03,309.024 2051.33,302.524 2034.97,302.524L1994.74,302.524C1978.55,302.524 1963.03,308.953 1951.58,320.397C1940.14,331.842 1933.71,347.364 1933.71,363.549L1933.71,426.586L1971.54,426.586Z" style="fill:rgb(248,45,99);"/>
                </g>
                <g transform="matrix(0.538899,0,0,1.18877,-260.52,172.726)">
                    <path d="M1964.85,402.376L1964.85,340.915C1964.85,323.153 1979.25,305.184 1997.01,305.184L2035.02,305.184C2043.11,305.184 2050.87,308.398 2056.59,314.119C2062.31,319.839 2065.53,327.599 2065.53,335.689L2065.53,403.376L2086.76,403.376L2086.76,345.895C2086.76,330.027 2081.05,314.808 2070.89,303.588C2060.73,292.367 2046.94,286.064 2032.57,286.064L1997.22,286.064C1983,286.064 1969.37,292.299 1959.32,303.397C1949.26,314.496 1943.61,329.549 1943.61,345.244L1943.61,402.376L1964.85,402.376Z" style="fill:rgb(199,45,86);"/>
                </g>
                <g transform="matrix(0.538899,0,0,1.3022,-48.2521,-1183.95)">
                    <path d="M1769.09,1376.7C1769.2,1376.82 1769.3,1376.94 1769.4,1377.07C1773.26,1381.84 1774.75,1388.1 1773.46,1394.1C1768.73,1416.08 1762.54,1444.84 1762.54,1444.84C1762.54,1444.84 1784.23,1537.87 1795.07,1584.37C1796.53,1590.62 1795.06,1597.2 1791.06,1602.23C1787.07,1607.26 1781,1610.19 1774.58,1610.19L1451.36,1610.19C1445.24,1610.19 1439.46,1607.39 1435.65,1602.6C1432.2,1598.25 1430.72,1592.69 1431.52,1587.24C1431.6,1587.36 1431.69,1587.47 1431.78,1587.59C1435.59,1592.41 1441.39,1595.23 1447.53,1595.23L1770.4,1595.23C1776.85,1595.23 1782.94,1592.27 1786.93,1587.21C1790.92,1582.15 1792.37,1575.54 1790.86,1569.27C1779.95,1523.84 1758.54,1434.66 1758.54,1434.66C1758.54,1434.66 1764.57,1407.45 1769.27,1386.22C1769.98,1383.04 1769.9,1379.78 1769.09,1376.7Z" style="fill:url(#_Linear1);"/>
                </g>
            </g>
        </g>
    </g>
    <defs>
        <linearGradient id="_Linear1" x1="0" y1="0" x2="1" y2="0" gradientUnits="userSpaceOnUse" gradientTransform="matrix(-30.8394,-150.375,164.724,-28.153,1685.42,1696.7)"><stop offset="0" style="stop-color:rgb(255,235,211);stop-opacity:1"/><stop offset="1" style="stop-color:rgb(255,235,211);stop-opacity:0"/></linearGradient>
    </defs>
</svg>
